<svg xmlns="http://www.w3.org/2000/svg" viewBox="0 0 64 64">
  <rect width="64" height="64" rx="14" fill="#244b3e"/>
  <path d="M18 50c8-8 14-17 20-30" fill="none" stroke="#9fbd72" stroke-linecap="round" stroke-width="4"/>
  <path d="M26 39c-5-1-9 0-12 4 5 2 9 1 12-4Zm7-11c-4-2-8-2-12 1 4 3 8 3 12-1Z" fill="#7fa360"/>
  <g fill="#ffd84a" stroke="#f3b91f" stroke-linejoin="round" stroke-width="1.5">
    <path d="M38 13c-5 1-8 5-7 9 1 3 4 4 7 2 4-2 5-7 0-11Z"/>
    <path d="M48 20c-5-2-10 0-11 4-1 3 1 5 5 5 4 0 8-4 6-9Z"/>
    <path d="M38 31c-4-3-9-2-11 2-2 3 0 6 3 7 4 1 9-4 8-9Z"/>
    <path d="M26 43c-4-3-9-2-11 1-2 4 0 7 4 7 4 1 8-3 7-8Z"/>
  </g>
  <g fill="#fff3a3">
    <circle cx="36" cy="21" r="1.6"/>
    <circle cx="42" cy="25" r="1.6"/>
    <circle cx="32" cy="36" r="1.6"/>
    <circle cx="20" cy="47" r="1.6"/>
  </g>
</svg>
